<?xml version="1.0" standalone="no"?>
<!DOCTYPE svg PUBLIC "-//W3C//DTD SVG 20010904//EN"
 "http://www.w3.org/TR/2001/REC-SVG-20010904/DTD/svg10.dtd">
<svg version="1.0" xmlns="http://www.w3.org/2000/svg"
 width="512.000000pt" height="512.000000pt" viewBox="0 0 512.000000 512.000000"
 preserveAspectRatio="xMidYMid meet">

<g transform="translate(0.000000,512.000000) scale(0.100000,-0.100000)"
fill="#000000" stroke="none">
<path d="M3470 4465 c-301 -61 -542 -267 -646 -551 l-27 -74 -1327 -2 -1326
-3 -42 -28 c-60 -39 -93 -94 -99 -164 -7 -80 31 -154 102 -198 l48 -30 1324
-5 1324 -5 24 -69 c72 -206 255 -401 462 -492 147 -65 375 -87 526 -50 294 70
531 286 622 563 l17 52 257 3 258 3 48 30 c71 44 109 118 102 198 -6 70 -39
125 -99 164 l-41 28 -262 3 -261 3 -24 70 c-40 119 -103 214 -209 319 -106
105 -197 162 -321 204 -141 47 -297 58 -430 31z m342 -458 c92 -45 157 -112
201 -205 30 -63 32 -74 32 -177 0 -105 -2 -114 -34 -180 -129 -263 -464 -325
-675 -125 -233 221 -152 597 154 710 44 16 74 20 151 17 88 -2 103 -6 171 -40z"/>
<path d="M1376 2339 c-311 -42 -594 -278 -691 -576 l-17 -52 -257 -3 -258 -3
-48 -30 c-71 -44 -109 -118 -102 -198 6 -70 39 -125 99 -164 l41 -28 262 -3
261 -3 24 -70 c40 -119 103 -214 209 -319 208 -205 460 -284 747 -235 167 29
317 109 445 235 95 94 161 196 205 316 l27 74 1305 0 c1003 0 1314 3 1346 12
57 17 119 82 135 141 27 95 -13 195 -97 244 l-47 28 -1323 5 -1323 5 -24 68
c-70 200 -232 380 -430 477 -139 68 -336 100 -489 79z m220 -433 c77 -20 148
-63 203 -121 201 -213 140 -546 -124 -676 -67 -32 -74 -34 -180 -34 -108 0
-113 1 -186 37 -93 46 -158 112 -202 206 -30 63 -32 74 -32 177 0 105 2 114
34 180 92 186 295 282 487 231z"/>
</g>
</svg>
